<?xml version="1.0" encoding="UTF-8"?>
<svg width="40px" height="40px" viewBox="0 0 40 40" version="1.1" xmlns="http://www.w3.org/2000/svg" xmlns:xlink="http://www.w3.org/1999/xlink">
    <g id="Rescue-logo" stroke="none" stroke-width="1" fill="none" fill-rule="evenodd">
        <path d="M20.303539,2 C16.683939,2 13.145539,3.07271 10.135659,5.08316 C7.12577897,7.09361 4.77951897,9.95131 3.39350897,13.295 C2.00804897,16.6383 1.64545297,20.3175 2.35159897,23.8669 C3.05775897,27.4163 4.80090897,30.6766 7.36050897,33.235 C9.92092897,35.7938 13.182439,37.5362 16.732839,38.2419 C20.283239,38.9477 23.963139,38.5851 27.307539,37.2 C30.651539,35.8158 33.509939,33.4709 35.521239,30.462 C37.532439,27.453 38.606139,23.9152 38.606539,20.296 C38.606539,10.192 30.411539,2 20.303539,2 Z M33.113539,22.851 C33.112439,23.3058 32.931339,23.7416 32.609739,24.0632 C32.288139,24.3848 31.852339,24.5659 31.397539,24.567 L24.573539,24.567 L24.573539,31.39 C24.571939,31.8445 24.390739,32.2799 24.069539,32.6013 C23.748239,32.9227 23.312939,33.1042 22.858539,33.106 L17.748539,33.106 C17.293739,33.1047 16.857939,32.9235 16.536239,32.602 C16.214539,32.2805 16.033139,31.8448 16.031539,31.39 L16.031539,24.567 L9.20650897,24.567 C8.75171897,24.5659 8.31585897,24.3848 7.99427897,24.0632 C7.67269897,23.7416 7.49156897,23.3058 7.49050897,22.851 L7.49050897,17.744 C7.49156897,17.2892 7.67269897,16.8534 7.99427897,16.5318 C8.31585897,16.2102 8.75171897,16.0291 9.20650897,16.028 L16.031539,16.028 L16.031539,9.205 C16.033139,8.75038 16.214439,8.31482 16.535839,7.99335 C16.857339,7.67188 17.292839,7.49058 17.747539,7.489 L22.857539,7.489 C23.312339,7.49006 23.748139,7.67119 24.069739,7.99277 C24.391339,8.31436 24.572439,8.75021 24.573539,9.205 L24.573539,16.028 L31.398539,16.028 C31.853339,16.0291 32.289139,16.2102 32.610739,16.5318 C32.932339,16.8534 33.113439,17.2892 33.114539,17.744 L33.114539,22.851 L33.113539,22.851 Z" id="Shape-Copy" fill="#165C7D" fill-rule="nonzero"></path>
    </g>
</svg>
